<?xml version="1.0" standalone="no"?>
<!DOCTYPE svg PUBLIC "-//W3C//DTD SVG 20010904//EN"
 "http://www.w3.org/TR/2001/REC-SVG-20010904/DTD/svg10.dtd">
<svg version="1.0" xmlns="http://www.w3.org/2000/svg"
 width="512.000000pt" height="512.000000pt" viewBox="0 0 512.000000 512.000000"
 preserveAspectRatio="xMidYMid meet">
<metadata>
Created by potrace 1.11, written by Peter Selinger 2001-2013
</metadata>
<g transform="translate(0.000000,512.000000) scale(0.100000,-0.100000)"
fill="#000000" stroke="none">
<path d="M1913 3960 c-89 -19 -273 -169 -411 -334 l-33 -40 -47 54 c-148 170
-278 262 -412 291 -69 15 -113 5 -144 -32 -30 -35 -34 -83 -10 -117 9 -13 70
-76 136 -140 203 -197 260 -259 343 -376 22 -30 51 -60 65 -66 82 -34 141 -8
238 105 57 67 115 126 196 200 18 16 197 165 215 178 36 27 61 70 61 108 0 52
-13 81 -55 122 -40 39 -94 57 -142 47z"/>
<path d="M4045 3897 c-98 -47 -247 -175 -361 -310 l-41 -48 -28 38 c-47 63
-180 188 -247 232 -109 72 -249 102 -304 67 -35 -24 -54 -71 -43 -110 6 -21
72 -94 201 -222 106 -105 213 -219 238 -255 70 -99 119 -144 162 -147 65 -4
113 24 182 107 85 100 153 165 316 300 74 62 142 124 152 139 55 83 -20 212
-132 227 -35 4 -56 0 -95 -18z"/>
<path d="M3967 2808 c-71 -15 -105 -40 -186 -138 -100 -119 -239 -352 -243
-406 -4 -62 64 -118 119 -97 32 12 418 394 438 433 10 19 19 56 21 81 2 39 -2
52 -27 82 -35 43 -71 56 -122 45z"/>
<path d="M804 2790 c-60 -30 -145 -126 -237 -267 -26 -40 -47 -74 -47 -76 0
-2 -20 -39 -45 -83 -25 -43 -45 -89 -45 -102 0 -57 62 -111 113 -99 35 9 434
405 452 449 57 140 -56 244 -191 178z"/>
<path d="M2663 2760 c-69 -19 -125 -52 -172 -102 -40 -42 -47 -68 -27 -106 25
-49 83 -61 216 -46 113 12 191 9 225 -8 116 -61 126 -154 26 -239 -44 -38
-137 -90 -194 -109 -71 -23 -98 -110 -57 -178 23 -37 74 -63 111 -57 114 19
179 5 234 -52 49 -50 69 -110 62 -183 -12 -134 -124 -238 -264 -245 -69 -3
-118 8 -204 45 -102 45 -173 38 -257 -27 -39 -30 -82 -113 -82 -161 0 -78 55
-146 160 -196 61 -29 72 -31 180 -30 138 0 173 5 280 43 111 40 180 83 265
166 196 192 233 446 98 674 -21 35 -61 85 -90 111 l-51 47 35 44 c187 233 76
534 -225 614 -70 18 -195 16 -269 -5z"/>
<path d="M1455 2749 c-57 -30 -89 -63 -149 -154 -151 -229 -236 -372 -236
-399 0 -33 35 -60 75 -59 28 1 66 26 217 146 201 159 229 184 267 241 51 78
23 192 -56 230 -45 21 -70 20 -118 -5z"/>
<path d="M4565 2751 c-63 -29 -115 -92 -237 -286 -174 -275 -179 -288 -116
-321 22 -12 37 -13 58 -5 23 8 133 86 176 126 6 5 59 48 118 94 128 101 172
150 190 211 23 77 -12 157 -81 186 -42 18 -60 17 -108 -5z"/>
</g>
</svg>
